<?xml version="1.0" encoding="iso-8859-1"?>
<!-- Generator: Adobe Illustrator 25.2.3, SVG Export Plug-In . SVG Version: 6.00 Build 0)  -->
<svg version="1.1" baseProfile="basic" id="Layer_1"
	 xmlns="http://www.w3.org/2000/svg" xmlns:xlink="http://www.w3.org/1999/xlink" x="0px" y="0px" viewBox="0 0 50 50"
	 xml:space="preserve">
<path d="M1.04,25.07c-0.01-0.13,0-0.27,0.01-0.4c0.01-0.24,0.03-0.49,0.06-0.73v0.18c0.59-5.7,4.85-10.8,10.75-11.91
	c-0.28,0.37-0.51,0.71-0.69,1.01c-1.54,2.43-3.39,5.85-4.88,8.6c-1,1.85-1.87,3.45-2.32,4.17c-0.47,0.73-1.28,0.84-1.88,0.64
	C1.44,26.4,1.06,25.84,1.04,25.07z"/>
<path d="M14.52,12.11c2.47-2.6,6.28-5.01,11.5-5.01c5.84,0,11.09,3.22,13.86,8.01c-0.61-0.09-1.23-0.14-1.86-0.14
	c-7.49,0-11.47,5.7-14.1,10.67c-0.33,0.62-0.69,1.46-1.11,2.43c-1.69,3.93-4.47,10.42-9,10.86C7.7,38.65,2.64,34.27,1.35,28.48
	c0.03,0.02,0.06,0.03,0.09,0.04c0.39,0.13,0.8,0.2,1.19,0.2c1.21,0,2.35-0.6,3.02-1.66c0.5-0.77,1.34-2.33,2.4-4.29
	c1.47-2.72,3.3-6.1,4.81-8.48C13.22,13.72,13.77,12.94,14.52,12.11z"/>
<path d="M49,27.97C49,33.91,44.26,39,38.02,39c-2.45,0-13.53-0.02-19.63-0.03c3.02-2.56,4.95-7.04,6.26-10.11
	c0.4-0.93,0.75-1.74,1.04-2.29c2.37-4.47,5.91-9.6,12.33-9.6c1.02,0,2.01,0.14,2.94,0.4v0.01C45.63,18.69,49,23.02,49,27.97z"/>
</svg>